{"title":"May Sumo Basho Highlights. revittony","magnet":"magnet:?xt=urn:btih:4f27fd54286eb864ed6839b3eeca087ac5af187e&dn=May+Sumo+Basho+Highlights.+revittony&tr=udp%3A%2F%2Ftracker.leechers-paradise.org%3A6969&tr=udp%3A%2F%2Fzer0day.ch%3A1337&tr=udp%3A%2F%2Fopen.demonii.com%3A1337&tr=udp%3A%2F%2Ftracker.coppersurfer.tk%3A6969&tr=udp%3A%2F%2Fexodus.desync.com%3A6969","uploader":"revittony1","categoryP":"video","categoryS":"tv_shows","size":"10580259154","seeders":"0","leechers":"0","description":"highlights of all 15 days of the May 2017 Basho\r\n\r\n \r\nFormat : Matroska \r\nFormat version : Version 1 \r\nFile size : 672 MiB \r\nDuration : 22 min 43 s \r\nOverall bit rate : 4 136 kb/s \r\nEncoded date : UTC 2017-05-29 10:33:42 \r\nWriting library : WonderShare Matroska Muxer \r\n\r\nVideo \r\nID : 1 \r\nFormat : AVC \r\nFormat/Info : Advanced Video Codec \r\nFormat profile : <a class=\"__cf_email__\" href=\"/cdn-cgi/l/email-protection\" data-cfemail=\"84c9e5edeac4c8b0aab5\">[email&#xA0;protected]</a><script data-cfhash=\"f9e31\" type=\"text/javascript\">/* <![CDATA[ */!function(t,e,r,n,c,a,p){try{t=document.currentScript||function(){for(t=document.getElementsByTagName('script'),e=t.length;e--;)if(t[e].getAttribute('data-cfhash'))return t[e]}();if(t&&(c=t.previousSibling)){p=t.parentNode;if(a=c.getAttribute('data-cfemail')){for(e='',r='0x'+a.substr(0,2)|0,n=2;a.length-n;n+=2)e+='%'+('0'+('0x'+a.substr(n,2)^r).toString(16)).slice(-2);p.replaceChild(document.createTextNode(decodeURIComponent(e)),c)}p.removeChild(t)}}catch(u){}}()/* ]]> */</script> \r\nFormat settings, CABAC : Yes \r\nFormat settings, ReFrames : 2 frames \r\nFormat settings, GOP : M=3, N=25 \r\nCodec ID : V_MPEG4/ISO/AVC \r\nDuration : 22 min 43 s \r\nBit rate : 3 925 kb/s \r\nWidth : 1 280 pixels \r\nHeight : 720 pixels \r\nDisplay aspect ratio : 16:9 \r\nFrame rate mode : Constant \r\nFrame rate : 30.000 FPS \r\nColor space : YUV \r\nChroma subsampling : 4:2:0 \r\nBit depth : 8 bits \r\nScan type : Progressive \r\nBits/(Pixel*Frame) : 0.142 \r\nStream size : 638 MiB (95%) \r\nDefault : Yes \r\nForced : No \r\n\r\nAudio \r\nID : 2 \r\nFormat : MPEG Audio \r\nFormat version : Version 1 \r\nFormat profile : Layer 3 \r\nMode : Joint stereo \r\nMode extension : MS Stereo \r\nCodec ID : A_MPEG/L3 \r\nCodec ID/Hint : MP3 \r\nDuration : 22 min 43 s \r\nBit rate mode : Constant \r\nBit rate : 128 kb/s \r\nChannel(s) : 2 channels \r\nSampling rate : 44.1 kHz \r\nCompression mode : Lossy \r\nStream size : 20.8 MiB (3%) \r\nWriting library : LAME3.98 \r\nDefault : Yes \r\nForced : No","last_updated":"2017-05-29T13:15:37.739Z","parsed":{"xt":"urn:btih:4f27fd54286eb864ed6839b3eeca087ac5af187e","dn":"May Sumo Basho Highlights. revittony","tr":["udp://exodus.desync.com:6969","udp://open.demonii.com:1337","udp://tracker.coppersurfer.tk:6969","udp://tracker.leechers-paradise.org:6969","udp://zer0day.ch:1337"],"infoHash":"4f27fd54286eb864ed6839b3eeca087ac5af187e","infoHashBuffer":{"type":"Buffer","data":[79,39,253,84,40,110,184,100,237,104,57,179,238,202,8,122,197,175,24,126]},"name":"May Sumo Basho Highlights. revittony","announce":["udp://exodus.desync.com:6969","udp://open.demonii.com:1337","udp://tracker.coppersurfer.tk:6969","udp://tracker.leechers-paradise.org:6969","udp://zer0day.ch:1337"],"urlList":[]}}